<?xml version="1.0" encoding="UTF-8"?>
<svg id="_Слой_1" data-name="Слой 1" xmlns="http://www.w3.org/2000/svg" viewBox="0 0 533.86 517.63">
  <defs>
    <style>
      .cls-1 {
        fill: #00a99d;
      }

      .cls-2 {
        fill: #fff;
      }
    </style>
  </defs>
  <g>
    <path d="M0,516.51l30.76-84.54h10.66v14h-3.69l-23.9,70.54H0ZM14.94,493.66l3.81-10.55h38.2l3.81,10.55H14.94ZM61.87,516.51l-23.85-70.54v-14h6.97l30.7,84.54h-13.83Z"/>
    <path d="M124.97,516.51v-26.78h-27.71v26.78h-12.71v-61.64h12.71v24.78h27.71v-24.78h12.71v61.64h-12.71Z"/>
    <path d="M151.22,516.51v-61.64h12.6v43.06h6.15l-8.79,4.8,31.46-47.87h12.54v61.64h-12.66v-43.24h-6.09l8.73-4.8-31.46,48.04h-12.48Z"/>
    <path d="M231.08,516.51h-12.36v-61.64h16.05l19.63,45.11h.47l19.74-45.11h15.64v61.64h-12.36v-42.77h-.47l-18.34,40.37h-9.26l-18.34-40.37h-.41v42.77Z"/>
    <path d="M321.89,517.63c-4.1,0-7.7-.78-10.78-2.34-3.09-1.56-5.49-3.75-7.21-6.56-1.72-2.81-2.58-6.05-2.58-9.73v-.12c0-3.59.9-6.69,2.7-9.29s4.4-4.66,7.82-6.18c3.42-1.52,7.55-2.42,12.39-2.69l23.32-1.41v8.91l-21.62,1.35c-3.79.23-6.71,1.14-8.76,2.72-2.05,1.58-3.07,3.68-3.07,6.3v.12c0,2.7,1.03,4.82,3.07,6.39,2.05,1.56,4.78,2.34,8.17,2.34,2.97,0,5.63-.6,8-1.82s4.23-2.88,5.6-5.01c1.37-2.13,2.05-4.52,2.05-7.18v-18.34c0-3.4-1.05-6.06-3.16-8-2.11-1.93-5.14-2.9-9.08-2.9-3.63,0-6.55.78-8.76,2.34s-3.58,3.57-4.13,6.03l-.12.53h-11.95l.06-.64c.31-3.55,1.5-6.75,3.57-9.58,2.07-2.83,4.94-5.07,8.61-6.71,3.67-1.64,8.03-2.46,13.06-2.46s9.39.84,13.06,2.52c3.67,1.68,6.52,4.04,8.55,7.09s3.05,6.62,3.05,10.72v42.48h-12.77v-9.73h-.23c-1.21,2.23-2.78,4.15-4.69,5.77-1.91,1.62-4.07,2.87-6.47,3.75s-4.97,1.32-7.71,1.32Z"/>
    <path d="M407.9,464.95h-28.12v51.56h-12.71v-61.64h40.84v10.08Z"/>
    <path d="M418.56,516.51v-61.64h12.6v43.06h6.15l-8.79,4.8,31.46-47.87h12.54v61.64h-12.66v-43.24h-6.09l8.73-4.8-31.46,48.04h-12.48Z"/>
    <path d="M521.27,516.51v-21.15h-9.9l-14.88,21.15h-14.47l16.81-23.26c-4.26-1.33-7.62-3.52-10.11-6.56s-3.72-6.7-3.72-10.96v-.12c0-4.26.99-7.94,2.96-11.04s4.75-5.5,8.32-7.18c3.57-1.68,7.74-2.52,12.51-2.52h25.08v61.64h-12.6ZM509.49,485.58h11.78v-20.68h-11.78c-3.59,0-6.43.95-8.5,2.84s-3.1,4.5-3.1,7.82v.12c0,2.89,1.03,5.26,3.1,7.12,2.07,1.86,4.9,2.78,8.5,2.78Z"/>
  </g>
  <g>
    <circle class="cls-1" cx="257.37" cy="200.17" r="200.17"/>
    <g>
      <path class="cls-2" d="M349.34,143.81c8.06,11.92,14.39,24.95,19.09,38.55,10.88,5.46,20.08,14.8,24.41,26.32,3.22,8.56,3.48,18.91-8.57,12.34l-8.94-6.36c1.67,15.51.98,31.23-.89,46.69-.26,2.1-1.99,9.9-1.42,11.15,2.87,2.31,6.16,4.16,9.15,6.38,9.99,7.42,30.28,24.17,17.91,37.46-11.59,12.45-20.72-6.03-27.89-12.8-14.69-13.86-19.28,10.56-29.88,16.24-5.92,3.17-15.81,1.13-16.83-6.42-2.09-15.39,13-33.45,25.96-40.21l.42-.84c-2.61-13.46-6.94-27.03-14.68-38.37-.86,4-.92,8.02-3.43,11.46s-7.61,5.2-11.04,1.95c-7.07-6.69-4.93-27.57-5.04-36.47-7.31-6.85-15.75-12.42-24.31-17.61-.66.35.03.75.2,1.06,4.2,7.49,12.33,21.63-.9,25.49-25.9,7.56-44.57-32.71-48.18-52.71-21.43-15.51-31.55-38.09-29.72-64.61.88-12.85,6.02-17.78,18.1-20.89,28.18-7.27,53.65,2.16,76.12,18.93,18.09-2.41,37.42-.85,52.9,9.54,9.05,6.08,25.31,23.56,18.5,35.19-5.78,9.87-22.97.52-31.04-1.47ZM247.79,82.72c-7.53.49-21.89,2.63-26.51,9.13-4.71,6.63-3.29,24.4-1.72,32.27.36,1.83,2.7,11.34,4.25,11.63,21.31-2.44,39.44,13.74,45.03,33.42.74,2.6,1,5.36,1.85,7.8,25.07,12.72,50.11,26.9,66.58,50.39,10.04,14.33,14.47,28.14,18.24,45.07.85,3.83,1.79,15.42,8.65,11.35,5.91-3.51,4.97-12.78,6.13-18.58-11.11-18.71-17.07-35.96-4.77-55.95,1.24-2.02,4.43-5.24,4.38-7.35-.04-1.95-1.35-6.47-1.9-8.62-6.16-24.53-19.16-47.22-36.06-65.81-10.6,11.03-25.87,10.75-39.42,5.87-18.02-6.49-24.92-16.37-23.7-35.87.26-4.15,1.44-8.26,1.94-12.37-7.34-2.26-15.31-2.86-22.97-2.37ZM272.62,85.53c-2.98,13.15-4.48,30.16,7.4,39.34,10.73,8.28,29.76,13.08,42.49,7.41,1.56-.69,7.98-4.7,7.98-6.29-15.35-17.61-35.03-33.78-57.87-40.46ZM341.79,133.33c1.24,1.26,2.67,4.07,3.97,5.04,1.22.91,6.01,2.45,7.79,3.11,5.47,2.04,18.42,7.55,23.05,2.97,5.57-5.51-2.1-17.33-6.09-22.03-13.94-16.45-36.05-21.25-56.81-18.86-.16.7.22.85.63,1.25,2.23,2.16,5.06,3.94,7.31,6.12,17.87-2.16,41.56,6.77,52.65,21.13.92,1.19,1.41,2.85-.64,1.9-1.13-.52-5.23-5.43-6.7-6.71-11.7-10.19-27.69-15.46-43.19-14.88-.19.73.3.84.62,1.26.56.74,5.85,6.37,6.34,6.66,1.9,1.13,11.24,2.3,14.42,3.19,8.47,2.39,18.48,6.81,25.16,12.57.96.83,5.29,4.89,5.03,5.87-1.19,1.67-3.16-1.9-4.35-2.97-8.89-8.02-21.65-13.22-33.37-15.48-1.41-.27-3.28-.76-4.62-.41l7.15,7.95c10.53,2.51,21.51,6.03,30.16,12.61l-.98.99c-8.44-5.23-17.73-9.36-27.52-11.27ZM268.42,175.67c-2.35-15.74-13.92-32.28-29.68-36.77-1.98-.57-13.49-2.6-14.33-1.36.75,2.87,2.75,6.24,4.43,8.75,7.96,11.89,24.6,24.17,38.02,29.06.52.19.96.45,1.56.33ZM281.42,215.08c-.96.17-1.29-.24-1.9-.82-6.93-6.57-17.55-24.12-21.52-32.99-.8-1.79-2.11-6.85-2.98-7.92-.47-.58-5.85-3.54-6.3-3.13,4.27,16.57,17.58,47,37.94,46.99,13.11,0,10.69-9.1,6.15-17.51-1.57-2.92-5.96-9.8-8.48-11.64-.9-.65-3.07-1.81-4.16-1.71l13.75,25.26-.11,1.38-1.05.4-15.33-28.48c-1.15-1.51-5.37-3.62-7.32-3.58,3.15,7,6.51,14,10.41,20.61,2.81,4.76,6.35,9.18,8.87,13.97-.44-.09-.83.4-1.26.22-.83-.34-6.24-8.63-7.13-10.06-5.24-8.41-9.62-17.57-13.63-26.62l-9.84-4.62c3.23,9.43,8.37,18.25,14.08,26.37,2.31,3.29,7.92,9.1,9.41,11.98.35.67.56,1.09.41,1.9ZM379.1,193.71c-2.41-.97-3.93-4.1-6.7-4.62l6.7,5.45v-.83ZM391.26,215.92c.2-.26-.53-2.73-.75-3.22-1.16-2.6-4.56-7.64-6.38-9.97-3.61-4.63-8.21-8.58-12.98-11.96l1.66,6.93c4.81,4.52,9.76,8.98,14.28,13.81.39.41,3.73,4.98,4.18,4.41ZM390.84,219.69c.66-.59-4.4-6.24-5.02-6.93-2.07-2.28-8.99-9.75-11.1-11.12-.51-.33-.84-.52-1.49-.4.74,1.69.49,4.41,1.5,5.84s6.67,6.21,8.36,7.57c1.54,1.24,3.45,2.15,5.02,3.36.44.33,1.58,2.69,2.72,1.68ZM370.72,205.86c-.88-.16-1.16.57-1.6,1.12-12.32,15.05-10.13,31.89-2.37,48.35.34.73,3,6.3,3.35,6.3.71,0,.94-.43,1.04-1.06,2.15-18.22,2.59-36.56-.42-54.71ZM320.83,215.71c-.55,3.75,0,10.16,0,14.25,0,.12.45,2.33.83,2.3.7-2.97.26-6,.43-9.01.11-1.9,1.68-7.84-.22-8.59-.59-.27-1,.79-1.04,1.04ZM326.28,245.27l-.02-10.29c.02-3.96,1.32-10.08.86-13.83-.2-1.66-1.15-2.68-2.52-3.55-1.08,4.78-.68,9.63-.82,14.48-.06,2.01.2,5.12,0,6.71-.11.88-.78,1.46-.77,2,0,.9,2.42,5.45,3.26,4.48ZM327.96,245.27c2.89-.47,1.98-1.41,2.22-3.02.53-3.7,2.19-13.21,1.47-16.39-.31-1.38-1.81-1.85-2.01-3.23l-.8,1.08-.87,21.56ZM352.69,276.71c-.6-.65-6.75,4.13-7.55,4.81-8.14,6.99-16.1,18.08-16.34,29.14.65-.1.79-.78,1.04-1.26,5.57-10.9,9.45-20.44,19.08-28.72.87-.74,5-2.66,3.78-3.98ZM339.7,316.96c8.49-3.71,10.94-15.81,19.27-19.93,7.8-3.85,13.23,1.59,18.26,6.93,5.25,5.58,13.17,19.87,21.17,9.02,7.69-10.44-8.36-23.32-15.55-29.31l-10.44-6.95c-1.24,1.49,3.2,3.09,4.32,3.85,9.72,6.59,17.65,16.81,23.35,26.95l-1.27.44c-7.23-10.89-15.27-21.95-27.04-28.27l-3.14,5.4c9.5,4.29,17.83,13.66,23.82,22.09.56.79,3.51,4.52,3.01,5.16l-1.47.04c-5.96-8.25-12.75-17.47-21.28-23.2-1.18-.79-3.88-2.72-5.17-2.84-1.41-.13-3.51,1.72-5.83,1.71-1.8,0-3.37-1.37-4.58-1.29-3.95.25-13.45,12.69-15.76,16.13-2.44,3.64-5.03,9.81-7.35,12.77-.32.4-.63.95-1.23.86-1.26-.26.21-2.75.46-3.3,1.44-3.13,3.95-7.15,5.85-10.08,4.56-7.02,9.93-13.56,16.91-18.27-1.33-1.15-1.58-2.94-2.37-4.3-.2-.35.05-.68-.74-.54-3.32.58-11.83,12.02-13.8,15.14-3.8,6.02-5.74,11.93-8.92,17.9-.22.41-.49.55-.95.55.99,3.44,4.64,4.39,7.88,4.09,3.43-6.25,7.4-12.48,12.21-17.76,9.64-10.57,15.64-11.44,26.85-2.09,3.6,3,12.23,12.03,14.26,15.93.35.67.56,1.09.41,1.9-.8.14-1.14-.13-1.7-.6-1.64-1.36-4.35-5.84-6.05-7.79-4.3-4.93-13.64-14.57-20.55-14.28-6.34.27-14.96,11.45-18.41,16.42-.53.76-4.78,7.18-4.44,7.51Z"/>
      <path class="cls-2" d="M162.84,127.53c2.05,13.8,7.23,26.93,14.19,38.91l.83-.21c-1.21-12.68,12.8-23.12,17.58-6.26,1.84,6.48,1.88,13.55,1.7,20.11-.08,3.01.18,5.8-.74,8.75.34,1.72,17.01,13.47,19.64,15.11.81.51,4.9,3.15,5.41,2.76-6.3-8.44-12.35-25.3,3.57-26.82,25.91-2.47,40.55,33.15,45.29,53.64,21.28,15.02,31.08,37.53,29.53,63.53-.95,16-8.29,19.94-22.98,22.72-26.46,5-50.04-4.03-70.82-19.89-25.39,3.55-52.86-1.87-67.95-24.29-4.02-5.98-8.95-16.75-2.14-22.53,7.16-6.07,20.41.78,28.06,3.32.36.12,1.09.51,1.25,0-8.14-11.8-14.36-24.82-19.08-38.36-11.58-4.87-27.51-23.18-26.53-36.15.83-11.05,15.94.77,19.62,3.86-2.41-19.34-.38-38.82,2.53-57.98-9.89-6.73-22.71-14.87-28.53-25.66-3.83-7.1-3.68-14.73,3.15-19.92,11.02-8.37,19.45,8.31,25.93,14.53,16.12,15.46,19.8-15.59,33.64-17.43,7.79-1.03,13.58,2.82,13.54,11.03-.07,14.04-14.79,30.92-26.72,37.22ZM161.1,120.33c.97.7,7.43-5.82,8.39-6.91,6.69-7.54,10.87-16.73,14.76-25.91.23-.55.79-.84,1.06-1.35-1.28-3.18-4.74-3.74-7.8-3.5-4.14,7.56-15.52,25.28-24.58,26.35-7.69.91-17.66-9.08-22.43-14.49-1.39-1.57-5.5-6.38-6.31-7.94-.35-.67-.56-1.09-.41-1.9.83-.17,1.12.17,1.7.6,1.61,1.22,5.12,6.64,6.89,8.62,4.1,4.6,13.3,13.79,19.72,13.44,6.21-.33,14.06-10.46,17.48-15.24.65-.91,5.73-8.3,5.36-8.69-10.57,4.65-12.7,23.27-26.94,20.86-8.85-1.5-16.12-18.49-23.35-20.67-5.73-1.73-10.99,5.47-10.46,10.87,1.09,10.98,19.24,23.8,28.04,29.18l-.07-1.61c-9.75-5.01-18.18-14.33-24.17-23.41-.58-.88-4.05-5.84-3.43-6.42.07-.07,1.29-.07,1.59.09.41.22,4.09,6.68,4.94,7.85,4.42,6.05,13.45,16.47,20.16,19.67.65.31,1.22.61,1.98.52l2.78-5.06c-8.25-3.67-14.96-10.88-20.53-17.84-1.44-1.79-5.28-6.41-6.08-8.17-.63-1.37.59-2.32,1.45-1.03,4.83,6.53,9.83,13.48,15.93,18.87,1.93,1.7,8.41,6.84,10.75,6.91,1.09.03,2.84-1.61,4.98-1.7,4.12-.18,3.41,2.64,7.73-.21,5.79-3.81,11.78-12.6,15.46-18.5,1.54-2.47,3.35-6.89,4.93-8.91,1.39-1.78,2.13-.67,1.32,1.32-1.52,3.76-5.7,10.24-8.09,13.71-4,5.8-8.71,11.28-14.66,15.13-.71,1.32,2.09,3.72,1.91,5.45ZM161.93,123.68c6.5-3.09,12.56-9.06,16.69-14.96,3.91-5.59,7.4-12.42,7.2-19.42l-7.12,14.05c-3.49,5.68-7.31,11.31-12.36,15.73-1.01.89-5.57,3.3-4.41,4.6ZM244.01,223.14c-36.87-17.4-69.29-40.1-81.45-81.01-1.86-6.27-3.02-18.17-5.49-23.02-3.75-7.36-10.12-.78-11.3,4.54-.29,1.32-1.56,10.67-1.44,11.53.1.76,4.69,8.18,5.53,10.02,8.09,17.73,8.98,30-1.41,46.95-.76,1.24-3.18,3.82-3.52,4.88-.88,2.78,4.38,19.15,5.69,22.87,6.88,19.58,18.18,37.7,32.08,53.02,11.84-12.77,31.42-10.45,45.65-3.29,2.19,1.1,5.43,2.94,7.36,4.38,12.47,9.35,11.2,27.65,8.01,41.25,11.94,3.51,24.78,3.15,36.81.15,4.65-1.16,9.95-2.76,12.84-6.87,4.29-6.1,3.42-22.54,2.22-29.84-.78-4.74-2.36-9.42-4.04-13.9-5.82-.29-10.63-.13-16.3-1.83-17.34-5.2-28.71-22.53-31.22-39.84ZM143.9,194.53c.79.16,1.01-.39,1.43-.87,12.61-14.39,10.11-32.95,2.41-48.88-.32-.66-3.23-6.45-3.84-6-2.94,18.41-2.83,37.34,0,55.76ZM186.66,155.13c-1.14-.19-2.3.8-2.5,1.89-.39,2.13-.18,5.62-.43,7.95-.32,2.94-.76,5.92-1.22,8.84l2.7,3.53c.96.18.57-.42.62-1.04.58-7.05,1.06-14.09.84-21.17ZM190.02,182.8c.77-6.32,1.23-12.71,1.26-19.07,0-.8-.55-1.62-.42-2.49.09-.61.75-1.04.75-1.63,0-.9-2.43-5.45-3.26-4.48-.14,3.83.18,7.71.02,11.54-.15,3.38-1.6,11.46-.3,14.1.35.71,1.22,1.66,1.95,2.03ZM193.37,186.15c.76-6.25.57-12.64-.21-18.87-.49,0-.58,9.05-.63,9.85-.2,2.88-2.27,7.45.84,9.02ZM141.39,199.14c-.81-1.6-.38-4.2-1.23-5.68-1.82-3.16-10.49-8.68-13.66-11.08-.41-.31-1.58-2.72-2.71-1.69-.62.57,4.78,6.62,5.44,7.35,2.71,2.98,7.16,7.66,10.23,10.1.34.27,1.57,1.3,1.94,1ZM265.91,230.17c-4.39-17.17-18.71-49.87-40.77-46.84-12.64,1.73-5.08,14.83-.91,21.24,2.14,3.29,5.73,8.54,9.62,9.67.59.17.74-.04.62-.62l-13.6-24.55c-.71-1.6.23-2.65,1.48-1.36,3.61,6.82,7.01,13.81,10.8,20.53.98,1.74,3.38,6.52,4.49,7.67.72.74,5.22,3.05,6.28,3.37.58.18.75-.04.61-.61-5.42-11.89-11.9-23.26-19.28-33.96l1.04-.63c8.88,10.75,14.99,23.63,20.75,36.27.7.94,7.52,4.38,8.96,4.89.47.16,1.01.44,1.12-.3.05-.38-2.56-6.11-3-7.06-3.76-8.19-8.94-15.82-14.27-23.04-1.43-1.94-5.66-6.28-6.41-7.84-.26-.55-.27-1.08-.22-1.67.99-1.01,5.29,4.98,6.03,5.91,6.63,8.33,13.18,18.45,17.52,28.18.69,1.54,2.05,6.57,2.67,7.39.33.44,6.11,3.65,6.48,3.37ZM128.23,189.24c-1.59-1.7-3.27-3.31-4.66-5.19-.25,2.79,1.94,5.96,3.39,8.35,2.35,3.87,5.7,8.01,8.97,11.15.74.71,7.03,6.21,7.55,5.65-.34-1.76-.79-5.06-1.66-6.51-.97-1.62-4.25-3.82-5.68-5.22-2.73-2.68-5.3-5.45-7.91-8.24ZM143.48,212.14l-8.38-6.7c2.24,2.71,5.11,5.38,8.38,6.7ZM290.22,262.88c-1.12-4.17-3.94-8.23-6.54-11.7-9.48-12.61-23.28-20.55-37.48-26.88,2.2,15.92,13.6,32.28,29.43,37.02.96.29,5.81,1.55,6.42,1.55h8.18ZM172.41,267.07c.33-.31-2.15-3.57-2.53-3.97-2.17-2.29-10.63-5-14.02-6.11-5.26-1.72-16.33-6.17-19.18.97-3.18,7.97,7.34,20.72,13.08,25.67,14.12,12.18,33.48,15.03,51.57,13.2l-8.27-7.47c-17.49,1.77-34.98-4.58-47.92-16.21-.87-.78-5.87-5.69-5.85-6.3.01-.56,1-.73,1.67-.42,1.07.5,4.9,5.08,6.28,6.3,8.06,7.04,19.49,12.64,30.11,14.34,4.13.66,9.53,1.37,13.5.33l-7.15-7.53c-13.84-2.36-29.03-6.57-39.81-15.95-.95-.83-4.87-4.46-4.61-5.45l1.04-.63c8.94,10.04,21.99,15.89,35.01,18.66,1.51.32,3.44.81,4.93.94.62.06,1.09.45.94-.52l-6.73-7.52c-10.46-2.74-21.44-6.02-30.15-12.62-.11-.53.4-1.03.97-.98.81.07,4.93,2.9,6.14,3.51,6.68,3.36,13.69,5.97,20.97,7.75ZM242.01,314.86c3.04-13.28,4.52-30.76-7.82-39.76-12.07-8.79-34.44-14.19-47.06-4.02-.69.56-2.98,2.62-2.98,3.32,15.58,17.62,34.9,33.57,57.87,40.46Z"/>
      <path class="cls-2" d="M258.23,130.89c2.35-.7,9.33,1,11.95,1.71,14.1,3.84,26.83,12.35,37.63,21.92,1.58.49,6.44-.95,8.59-1.1,11.23-.76,22.66.71,27.84,12.03,4.6,10.06,1.65,20.55-3.63,29.64,6.61,10.95,12.75,23.23,15.24,35.9.23,1.15,1.13,5.06.22,5.7-.81.37-1.66.31-2.37-.21-.63-.46-3.21-5.64-4.03-6.87-5.52-8.23-13.36-16.26-20.88-22.73-24.27-20.87-65.09-35.03-71.16-70.55-.26-1.49-1.23-4.91.59-5.45ZM261.71,134.58c-1.1-.12-.86.06-.74.95.17,1.29,1,4.43,1.47,5.67.2.53.25,1.23.95,1.35l-1.68-7.97ZM274.2,137.61l-10.8-2.61c3.17,14.83,10.74,29.49,23.47,38.15-2.47-5.27-5.38-10.34-7.44-15.82-2.4-6.39-3.91-13.04-5.23-19.72ZM301.54,183.21c-7.12-12.29-11.8-25.78-15.14-39.57-.83-1.25-9.6-5.3-10.02-4.86,2.04,13.63,7.36,26.87,15.5,37.95l9.65,6.48ZM314.54,191.6l-4.83-7.96c-5.11-9.38-7.68-19.59-8.8-30.19-1.2-1.3-11.51-9.19-12.36-8.39,2.44,9.33,5.26,18.59,9.34,27.34,1.58,3.38,5.34,11.15,7.83,13.55.45.43,8.46,6.03,8.81,5.65ZM340.07,192.82c3.84-7.63,6.22-15.36,3.61-23.86-4.66-15.14-20.19-15.22-33.34-12.79-.73.54-.14.6.22,1.06,2.7,3.45,6.7,6.99,9.65,10.47,6.73,7.94,13.09,16.33,18.71,25.08l1.15.03ZM325.02,199.15c-4.97-10.95-8.72-22.39-11.92-33.98-2.91-3.54-6.21-6.89-9.87-9.62.77,14.59,7.28,28.41,16.36,39.61l5.44,3.99ZM335.92,208.37c.25-.32-1.58-5.43-1.89-6.28-4.19-11.55-7.43-21.94-15.73-31.23-.6-.67-1.29-1.46-2.08-1.9,1.1,5.16,2.8,10.33,4.6,15.31,1.69,4.68,3.93,10.83,6.23,15.15,2.04,3.84,5.42,6.44,8.87,8.95ZM345.56,218.43c-1.94-12.25-7.98-23.35-15.92-32.7l9.55,25.87,6.37,6.83ZM350.17,224.3l-.82-3.58-1.69-3.97c.02,1.58.32,3.35.81,4.85.25.76.97,2.29,1.7,2.7Z"/>
      <path class="cls-2" d="M246.52,84.8c2.48-.36,8.38.24,9.24,3.12,1.6,5.36-6.35,6.84-10.07,6.3-7.94-1.14-6.78-8.32.84-9.42ZM246.94,86.48c-9.66,1.33-3.12,8.99,4.88,5.29,6.02-2.79-.6-5.88-4.88-5.29Z"/>
      <path class="cls-2" d="M222.01,109.56c1.29-1.15,2.98-1.15,4.45-.3,4.87,2.8,4.78,16.71-1.23,15.08-4.8-1.3-6.64-11.74-3.22-14.78ZM223.27,110.81c-2.53,2.18-1.16,11.28,2.85,11.84,2.57-.55,2.3-5.47,1.96-7.47-.31-1.87-2.67-6.21-4.81-4.37Z"/>
      <path class="cls-2" d="M158.84,163.56c.45-.15,1.08-.12,1.54.03.64.2,5.72,8.88,6.82,10.38,8.52,11.66,21.41,22.25,33.17,30.56,14.97,10.57,30.31,17.76,42.69,31.93,6.11,6.99,14.43,21.43,14.5,30.83.03,3.8-6.8,1.85-9.35,1.34-15.34-3.08-29.88-12.51-41.3-22.85-.52-.18-1.04-.11-1.57-.09-6.02.16-10.37,2.11-17.16,1.22-21.94-2.87-24.55-25.52-14.16-41.6-5.32-8.79-10.12-18.07-13.14-27.94-.76-2.48-3.12-10.72-2.72-12.79.09-.5.15-.82.69-1ZM166.96,183.21c-.13-2.22-.46-5.41-2.51-6.71l1.05,3.77,1.46,2.94ZM184.99,214.24l-9.56-25.45c-1.74-1.79-3.41-4.04-5.11-5.79-.47-.49-.9-1.17-1.69-1.04,1.93,5.86,3.28,12.08,6.07,17.62,1.93,3.83,6.19,10.45,8.93,13.71.4.48.47,1.16,1.35.95ZM198.4,231.43c-2.92-11.63-7.03-23.43-12.82-33.92l-6.87-5.49c-.4.45,3.37,10.09,3.87,11.43,4.01,10.68,6.44,17.84,14.17,26.5.47.53,1.01,1.2,1.66,1.48ZM211.4,244.85c-.56-11.25-4.9-22.96-10.98-32.41-2.71-4.22-6.12-9.09-10.82-11.19,2.69,6.26,5.4,12.58,7.56,19.06,1.61,4.83,2.9,13.18,5.84,16.8,2.26,2.77,5.65,5.45,8.39,7.75ZM204.69,244c-10.34-11.35-20.49-23.04-28.72-36.05-.23-.44-1.17-.59-1.44-.41-.44.29-3.63,8.56-3.91,9.72-2.94,12.13,2.06,24.9,15.12,27.47,6.1,1.2,12.91.51,18.96-.73ZM225.66,255.33c-2.67-14.28-8.33-28.37-16.33-40.47l-9.24-6.06c5.51,8.29,9.92,17.41,11.95,27.24.75,3.62.99,7.26,1.69,10.89,2,1.76,4.17,3.44,6.35,4.97.57.4,5.33,3.72,5.58,3.43ZM238.23,261.62c-2.08-13.84-7.54-27.55-15.97-38.73l-9.18-5.7,7.45,14.98c3.19,8,5.59,16.24,7.69,24.59.63.99,9.64,5.28,10.01,4.87ZM240.42,262.78l10.16,2.6.49-.86c-3.38-14.32-10.68-29.06-23.31-37.28,1.39,3.42,3.44,6.55,4.97,9.91,3.71,8.16,6.14,16.81,7.7,25.63ZM252.91,265.81c1.2-.64.03-4.21-.3-5.36-.14-.48-.35-1.77-.95-1.77l1.26,7.13Z"/>
      <path class="cls-2" d="M288.02,275.94c6.58-1.19,8.99,15.46,2.38,15.87-6.19.38-7.91-14.87-2.38-15.87ZM288,278.04c-2.99.9-1.87,11.73,2.37,12.02,4.38-1.87,1.77-13.28-2.37-12.02Z"/>
      <path class="cls-2" d="M264.55,306.17c2.58-.38,8.74.06,9.65,3.12,2.15,7.21-13.62,8.12-15.23,3.08-1.15-3.57,2.52-5.76,5.58-6.2ZM261,309.53c-3.41,4.07,8.13,6.02,11.02,2.43s-4.55-4.53-7.06-4.12c-.81.13-3.49,1.13-3.96,1.69Z"/>
    </g>
  </g>
</svg>